# xmcd
#
# Track frame offsets: 
#        225
#        15533
#        32381
#        49318
#        64930
#        83362
#        97857
#        112087
#        124923
#        140588
#        152891
#        170683
#        186536
#        200504
#        212672
#        227876
#
# Disc length: 3247 seconds
#
# Revision: 1
# Processed by: cddbd v1.5.2PL0 Copyright (c) Steve Scherf et al.
# Submitted via: ExactAudioCopy v0.95b4
#
DISCID=e10cac10
DTITLE=Various Artist - 20 cm Fete Auf Mallorca - CD3
DYEAR=1900
DGENRE=
TTITLE0=Playa Party Projekt - Alle Mann Nach Palma
TTITLE1=Stefano - Lieschen
TTITLE2=Stefano - Blaue Berge
TTITLE3=Alexandra - Knallrotes Gummiboot
TTITLE4=Die Partygeier - Wann Wird's Mal Wieder Richtig Sommer
TTITLE5=Bernie - Wir Geh'n Nicht Nach Hause
TTITLE6=Lenni - In Der Schinkenstraße
TTITLE7=D' Laudl's - It's Partytime
TTITLE8=Tops - Urlaub Total
TTITLE9=Trio Melody - Das Wird Ein Super Sommer
TTITLE10=Tiffany - Heiße Nächte Am Strand Von Mallorca
TTITLE11=Sunshine Party Band - Ay Ay Maria
TTITLE12=Die Partygeier - Amarillo
TTITLE13=Orig. Südtiroler Spitzbaum - Marina
TTITLE14=Tops - Alles Paletti
TTITLE15=Solid Gold - Ciao Goodbye
EXTD=
EXTT0=
EXTT1=
EXTT2=
EXTT3=
EXTT4=
EXTT5=
EXTT6=
EXTT7=
EXTT8=
EXTT9=
EXTT10=
EXTT11=
EXTT12=
EXTT13=
EXTT14=
EXTT15=
PLAYORDER=
